/* XPM */
static char * collectable_xpm[] = {
"50 40 8 1",
" 	c None",
".	c #452A1B",
"+	c #75583D",
"@	c #613B1D",
"#	c #624630",
"$	c #56351D",
"%	c #E88A36",
"&	c #FFF089",
"                                                  ",
"                                                  ",
"                                                  ",
"                                                  ",
"        .................................         ",
"        .................................         ",
"      ..+++++++++++++++++++++..@@@@@@@@@@..       ",
"      ..+++++++++++++++++++++..@@@@@@@@@@..       ",
"      ..+++++++++++++++++++++..@@@@@@@@@@..       ",
"    ..+++++++++++++++######..@@@@@@@@@@@@@@...    ",
"    ..+++++++++++++++######..@@@@@@@@@@@@@@...    ",
"    ..############+++++++++..$$$$$$$$$$@@@@...    ",
"    ..############+++++++++..$$$$$$$$$$@@@@...    ",
"  ..+++++++++++++++++++++..@@@@@@@@@@@@$$$$@@@..  ",
"  ..+++++++++++++++++++++..@@@@@@@@@@@@$$$$@@@..  ",
"  ..++++++++%%+++++++++++..@@@@@@@@@@@@@@@@@@@..  ",
"  ..++++++++%%+++++++++++..@@@@@@@@@@@@@@@@@@@..  ",
"  ..++++++%%&&%%+++++++++..@@@@@@@@@@@@@@@@@@@..  ",
"  ..++++++%%&&%%+++++++++..@@@@@@@@@@@@@@@@@@@..  ",
"  ........%%&&%%................................  ",
"  ........%%&&%%................................  ",
"  ..++++++%%&&%%+++++++++..@@@@@@$$$$$$@@@@@@@..  ",
"  ..++++++%%&&%%+++++++++..@@@@@@$$$$$$@@@@@@@..  ",
"    ..++++++%%++#########++..@@@@@@@@@@@@$$...    ",
"    ..++++++%%++#########++..@@@@@@@@@@@@$$...    ",
"    ..+++++++++++++++++++++..$$$$$$$$$$@@@@...    ",
"    ..+++++++++++++++++++++..$$$$$$$$$$@@@@...    ",
"    ..##########+++++++++++..@@@@@@@@@@@@@@...    ",
"    ..##########+++++++++++..@@@@@@@@@@@@@@...    ",
"    ..+++++++++++++++######..@@@@$$$$$$@@@@...    ",
"    ..+++++++++++++++######..@@@@$$$$$$@@@@...    ",
"      ..+++++++++++++++++++++..@@@@@@@@@@..       ",
"      ..+++++++++++++++++++++..@@@@@@@@@@..       ",
"      ..+++++++++++++++++++++..@@@@@@@@@@..       ",
"      ..+++++++++++++++++++++..@@@@@@@@@@..       ",
"      ..+++++++++++++++++++++..@@@@@@@@@@..       ",
"        .................................         ",
"        .................................         ",
"                                                  ",
"                                                  "};
