/* XPM */
static char * collectable_small_big_xpm[] = {
"24 19 13 1",
" 	c None",
".	c #452A1B",
"+	c #75583D",
"@	c #613B1D",
"#	c #624630",
"$	c #56351D",
"%	c #E88A36",
"&	c #FFF089",
"*	c #44291B",
"=	c #442A1B",
"-	c #E78936",
";	c #FEEF89",
">	c #E68936",
"   ..................   ",
"  .++++++++++++++.@@@.  ",
" .+++####+++##++.@@@@@. ",
" .+++++++#++++++.@$$$@. ",
".+++++++++####+.@@@@@@@.",
".++######++++++.@$$@@@@.",
".##+++++++++++.@@@@$$@@.",
".+++++%%+####+.@@@@@@@@.",
".++++%&&%+++++.@$$$@@@@.",
".*=..%&&%...............",
".++++-;&%+++++.@@@@@@@@.",
".+++++>%####++.@@@@@$$@.",
".##++++++++++++.@$$@@@@.",
".++#####+++++++.@@@@@@@.",
".+++++++++###++.@$$$@@@.",
" .++++++++++++++.@@@@@@.",
" .++######++##++.@$$$$. ",
" .++++++++++++++.@@@@@. ",
"  ....................  "};
