/* XPM */
static char * exit_big_xpm[] = {
"50 52 132 2",
"  	c None",
". 	c #D05B64",
"+ 	c #D0B364",
"@ 	c #446244",
"# 	c #2D412D",
"$ 	c #446344",
"% 	c #484848",
"& 	c #426042",
"* 	c #464746",
"= 	c #444444",
"- 	c #4F514F",
"; 	c #4D4D4D",
"> 	c #456445",
", 	c #555555",
"' 	c #505050",
") 	c #4F4F4F",
"! 	c #7A7A7A",
"~ 	c #515151",
"{ 	c #4A4A4A",
"] 	c #D95D67",
"^ 	c #4B4D4B",
"/ 	c #434643",
"( 	c #525252",
"_ 	c #8C8C8C",
": 	c #B19E5A",
"< 	c #4C4C4C",
"[ 	c #454545",
"} 	c #4F534F",
"| 	c #C35960",
"1 	c #425F42",
"2 	c #4D4E4D",
"3 	c #515351",
"4 	c #474947",
"5 	c #D9BA67",
"6 	c #436143",
"7 	c #565656",
"8 	c #464846",
"9 	c #454645",
"0 	c #4D504D",
"a 	c #555755",
"b 	c #4A4C4A",
"c 	c #4D4F4D",
"d 	c #505150",
"e 	c #5B5D5B",
"f 	c #575A57",
"g 	c #464646",
"h 	c #5E5E5E",
"i 	c #494949",
"j 	c #595959",
"k 	c #4E504E",
"l 	c #585858",
"m 	c #464946",
"n 	c #474847",
"o 	c #4A4B4A",
"p 	c #535353",
"q 	c #555655",
"r 	c #545654",
"s 	c #7D7D7D",
"t 	c #4C4E4C",
"u 	c #4B4E4B",
"v 	c #878787",
"w 	c #7F7F7F",
"x 	c #5C5D5C",
"y 	c #415E41",
"z 	c #5F605F",
"A 	c #5B5B5B",
"B 	c #515551",
"C 	c #4E4F4E",
"D 	c #535453",
"E 	c #5D5D5D",
"F 	c #6B6D6B",
"G 	c #4E4E4E",
"H 	c #4A4F4A",
"I 	c #4C4F4C",
"J 	c #535653",
"K 	c #525352",
"L 	c #505250",
"M 	c #D55C66",
"N 	c #585958",
"O 	c #424442",
"P 	c #C75A61",
"Q 	c #424542",
"R 	c #494A49",
"S 	c #494C49",
"T 	c #5A5D5A",
"U 	c #575857",
"V 	c #535553",
"W 	c #5A5B5A",
"X 	c #636463",
"Y 	c #616261",
"Z 	c #5F5F5F",
"` 	c #484A48",
" .	c #444644",
"..	c #4B4C4B",
"+.	c #575957",
"@.	c #454745",
"#.	c #5C5E5C",
"$.	c #494B49",
"%.	c #4A4E4A",
"&.	c #515251",
"*.	c #474747",
"=.	c #404440",
"-.	c #545454",
";.	c #1F1F1F",
">.	c #5A5A5A",
",.	c #565856",
"'.	c #202220",
").	c #212121",
"!.	c #222622",
"~.	c #1F201F",
"{.	c #505450",
"].	c #C7AD61",
"^.	c #252525",
"/.	c #272727",
"(.	c #4F504F",
"_.	c #595B59",
":.	c #5A5C5A",
"<.	c #B6575B",
"[.	c #616161",
"}.	c #646464",
"|.	c #565756",
"1.	c #212321",
"2.	c #363636",
"3.	c #373737",
"4.	c #414441",
"5.	c #828482",
"6.	c #436043",
"7.	c #292A29",
"8.	c #4C4D4C",
"9.	c #434443",
"0.	c #4E514E",
"a.	c #575757",
"                                                                                                    ",
"                                                                                                    ",
"                                                                                                    ",
"                                        . +                                                         ",
"                                      @ . .                                                         ",
"                                        # # $                                                       ",
"                                        % # # & * = = = =                                           ",
"                                - ; > , ' ) # # ! ! ! ! = ; ~ {                                     ",
"                  ]           ^ / ! > # > ( ! # ! ! ! ! _ ! ! =                                     ",
"                ] : ]       < < ! ! _ ! > # # > # # > _ _ ! ! [ { }     ]                           ",
"                  | 1     2 < ! ! _ _ ! ! # # # = ! > > _ _ ! ! 3 4   ] 5 ]                         ",
"                    & 6 # 1 & & > ! _ 6 # # ! = = ! _ # _ ! ! ! = 7 8 ] ] ]                         ",
"                      9 # # # 0 a ! _ ! ! ! = = ! _ ! # _ ! = = = ! b $ >                           ",
"                    c ! ! ! @ . d e ! _ ! f = ! ! _ > # ! = = ! ! ! & # # g                         ",
"                  % ; ! _ ! ! # ! h ! _ ! = = ! _ ! # 6 ! = ! ! _ _ @ ! ! i                         ",
"                  = ! _ _ ! ! # # j ! ! ! = ! ! ! ! ! # & = > > > # @ ! ! k <                       ",
"                  i ! ! ! ! # l # # m = n o ) % p ~ # # 6 # # ! ! _ ! _ _ ! %                       ",
"                  q ! 6 # # & r c 6           > # # @     > # # ! _ _ _ s ! t u                     ",
"                4 ^ & $ ! ! ! ~   v           #           w > # # ! ! ! _ ! x j                     ",
"                9 ! ! ! _ _ ! < j _         > # ]             y @ ! ! ! ! = = > ] 5                 ",
"                - z ! ! _ ! ! ! A           ] 5 ]               # # > ! = = # > # ]                 ",
"                B a q # C D = ! (             ]                 ~ # E F = ! > ! G                   ",
"                H I ! ! 6 6 8 t J                               7 K & ! ! _ # ! p =                 ",
"              @ L ! ! ! ! > ] M N                               1 6 $ ! _ > > ! ! O                 ",
"            [ & & ! _ _ ! ! P + 6                               6 # ! _ _ _ ! _ 4 Q                 ",
"            {   1 ! _ _ ! ! ^                                 & # ! ! _ ! _ ! ! 4 m                 ",
"          R S # # ! _ _ ! ! A                               > > ; ~ ! ! ! ! ! T U i                 ",
"          V + M ! ! ! _ _ ! 3 V                             5 ]   ' ! a W X Y Z ! n                 ",
"          k . & C d _ _ ! ! ! `                             . P 6  ...+.! ! # > ! o                 ",
"          * @ @.W #.J $.b %. .@.                                  &.! ! _ _ _ 6 ! %     .           ",
"          *.> > ! ! ! ! ! ! =.                                    { ! ! _ _ _ 6 # <   ] +           ",
"          G ! @ $ # 6 ! ! $.O                                     ' -.! ! _ _ @ > # @.1 #           ",
"          - ! ! ! ! $ # # >                                         3 @ 6 ! _ 1 ! & & # >           ",
"          V U = ! _ ! > # #                             ;.;.;.;.;.  = @ ! ! ! # # >.>               ",
"          t ! K > ! !   < >               ;.;.;.;.;.;.;.;.;.;.;.;.    $.! ! ! # ! ) b               ",
"          ,.@ 6 & = = = = @           ;.;.;.;.;.;.;.;.;.;.;.;.'.;.    g # ~ > # $.k                 ",
"            > ! ! ! ! ! N #     ;.;.;.;.;.;.;.;.;.;.;.;.;.;.).;.;.;.  ` # 1 y # # #                 ",
"          ] ] ! _ _ _ ! > #     ;.;.;.;.;.;.;.;.;.;.;.;.;.;.;.;.;.;.g & # ! ! ! ! # #     > 5 ]     ",
"          5 ] ! _ _ ! ! > >   !.'.~.;.;.;.;.;.;.;.;.;.;.;.;.;.;.;.;.{.].M ! ! _ ! ! =     > ]       ",
"            , ! ! ! > > # & ;.;.;.;.;.;.;.;.;.;.;.;.;.;.;.^.;.;.;.;.% ] ] _ _ _ ! ! =     >         ",
"            # > # > > K 6 P ;.;.;.;.;.;.                      /.;.;.b $.! _ _ ! $ # $       >       ",
"          @ < { 9 (.&._.M ].;.;.;.;.                            ;.> # :.! # # 6 6 1 1 @ > >         ",
"          # # ! ! ! ! q 1 <.;.;.;.                                > # [.}.|.@ # k O 1.              ",
"          y & > ! _ _ # # @ ;.;.                                  > # ! ! # @ ! ! < 2.3.            ",
"            # # @ ! _ O 4.# ;.;.                                  ( 6 $ _ _ > > # p i ;.;.          ",
"            ^ # # & ! 5.6.@ = 7.                                  l ! ! $ # # > > > > = ;.          ",
"          n n @ # ! _ ! 8.# 6 6                                   ) # & # # > > # = # > ;./.        ",
"        @ @ # @ ! ! _ ! ! < = # >                                 = = # # & O O # # O 9.= =         ",
"        @ @ N 0.c { ! ! a.) p ~ > #                                 # = = = =                       ",
"                    ~ ( a.                                                                          ",
"                                                                                                    ",
"                                                                                                    "};
