/* XPM */
static char * wall_small_xpm[] = {
"17 16 169 2",
"  	c #5785EB",
". 	c #2576E8",
"+ 	c #6B90EC",
"@ 	c #98B3F0",
"# 	c #91AFEF",
"$ 	c #5C88EB",
"% 	c #5083EB",
"& 	c #5082EA",
"* 	c #5786EB",
"= 	c #688EEC",
"- 	c #ABC0F2",
"; 	c #5F89EB",
"> 	c #658DEC",
", 	c #638BEC",
"' 	c #3279E8",
") 	c #678FEB",
"! 	c #9CB5F0",
"~ 	c #6D92EC",
"{ 	c #377CE8",
"] 	c #2A77E8",
"^ 	c #5D88EB",
"/ 	c #5B88EB",
"( 	c #6089EB",
"_ 	c #688EEB",
": 	c #5886EB",
"< 	c #5A87EB",
"[ 	c #9BB5F1",
"} 	c #A0B6F0",
"| 	c #678EEB",
"1 	c #377BE8",
"2 	c #4681E9",
"3 	c #3179E8",
"4 	c #3C7CE8",
"5 	c #4F83E9",
"6 	c #4782E8",
"7 	c #698FEB",
"8 	c #688DEB",
"9 	c #628CEB",
"0 	c #5C87EB",
"a 	c #5885EB",
"b 	c #5986EB",
"c 	c #608AEB",
"d 	c #658CEC",
"e 	c #98B4F0",
"f 	c #648EEA",
"g 	c #2C78E8",
"h 	c #2E78E8",
"i 	c #367AE8",
"j 	c #3A7CE8",
"k 	c #3D7EE8",
"l 	c #8EACEF",
"m 	c #94B3F0",
"n 	c #417EE8",
"o 	c #427FE8",
"p 	c #2876E8",
"q 	c #5889EA",
"r 	c #A0BAF0",
"s 	c #5686EB",
"t 	c #4780EB",
"u 	c #4C83EB",
"v 	c #3B7DE8",
"w 	c #4B83E8",
"x 	c #97B3EF",
"y 	c #5486E9",
"z 	c #3079E8",
"A 	c #2D78E8",
"B 	c #397BE8",
"C 	c #4B82E9",
"D 	c #5484EB",
"E 	c #4E83EB",
"F 	c #4D82EB",
"G 	c #3D7DE8",
"H 	c #447FE9",
"I 	c #3A7DE8",
"J 	c #4E83E8",
"K 	c #5688E8",
"L 	c #4882E9",
"M 	c #2A78E8",
"N 	c #2F78E8",
"O 	c #5284EB",
"P 	c #5584EB",
"Q 	c #96B1F0",
"R 	c #4E85E9",
"S 	c #397DE9",
"T 	c #387BE8",
"U 	c #3B7CE8",
"V 	c #5283EB",
"W 	c #477EEB",
"X 	c #5E89EB",
"Y 	c #5B87EB",
"Z 	c #4780EA",
"` 	c #4D83EA",
" .	c #9CB7F0",
"..	c #6992EA",
"+.	c #3379E8",
"@.	c #4E82EA",
"#.	c #5183EB",
"$.	c #5285EB",
"%.	c #4A80EB",
"&.	c #A6BBF2",
"*.	c #5385EB",
"=.	c #638CEB",
"-.	c #6A91EC",
";.	c #5A86EB",
">.	c #5685EB",
",.	c #2F79E8",
"'.	c #427FE9",
").	c #4A81E8",
"!.	c #357BE8",
"~.	c #2B78E8",
"{.	c #4E82EB",
"].	c #678EEC",
"^.	c #5184EB",
"/.	c #9BB7F0",
"(.	c #6E92EC",
"_.	c #94B1F0",
":.	c #4580E9",
"<.	c #9DB6F1",
"[.	c #337AE8",
"}.	c #5684EB",
"|.	c #4F83EB",
"1.	c #4B81EB",
"2.	c #4781E8",
"3.	c #417FE8",
"4.	c #4380E9",
"5.	c #5E8BEA",
"6.	c #8FADEF",
"7.	c #4B83EB",
"8.	c #2977E8",
"9.	c #638BEB",
"0.	c #608BEB",
"a.	c #5383EB",
"b.	c #347AE8",
"c.	c #2E79E8",
"d.	c #467FEB",
"e.	c #4981EB",
"f.	c #4D83EB",
"g.	c #5888EB",
"h.	c #5A89EB",
"i.	c #5A85EB",
"j.	c #5988EB",
"k.	c #6C92ED",
"l.	c #397CE8",
"m.	c #4680E9",
"n.	c #5688E9",
"o.	c #5185E9",
"p.	c #417FE9",
"q.	c #317AE8",
"r.	c #2C77E8",
"s.	c #6B91EC",
"t.	c #A5BCF1",
"u.	c #668EEC",
"v.	c #92AEEE",
"w.	c #668DEC",
"x.	c #AAC0F2",
"y.	c #6E91EC",
"z.	c #2776E8",
"A.	c #5887EB",
"B.	c #95B1F0",
"C.	c #6A8FEB",
"D.	c #5585EB",
"E.	c #658DEB",
"F.	c #6C91ED",
"G.	c #447DEA",
"H.	c #5083EA",
"I.	c #447FEA",
"J.	c #668EED",
"K.	c #6089EC",
"L.	c #4F82EB",
"  .   + @ # $ % & * .   = - ;   > ",
", * ' ) ! ~ { ] ^ / . . ( _ : < [ ",
"} | * 1 2 3 4 5 6 7 8 9 0 a b c d ",
"e f g h i j k l m n o 1 p q r b . ",
"_ s t u < n v w x y z A g B C . b ",
"D D E F G H I J K L M N 3 O a P   ",
"> Q R S 9 T U 3 3 % . b V . W . ^ ",
"X Y Z `  ...+.. . @.#.. $.` %.$ &.",
"* . %.*.=.-.;.. >.,.'.).!.~.. {.].",
". *.^.. =./.(.$ z _.:.<.[.g g . }.",
"|.#.1.O B 2.3.] 4.5.6.' . ] b D . ",
". 7.8.z ] ~.g h h 9.0.s . . a.. >.",
". 1.O b.c.A d.e.e.f.g.. : h.i.. >.",
"j.k.l.' m.n.o.p.q.r.q.v s.t.b .   ",
"u.v., * w.x.y.z.g [.,.A.B.C./ D.. ",
"D E.. . O F.s * G.H.I.>.J.K.. L.  "};
